<?xml version="1.0" encoding="UTF-8" standalone="no"?>
<!DOCTYPE svg PUBLIC "-//W3C//DTD SVG 1.1//EN" "http://www.w3.org/Graphics/SVG/1.1/DTD/svg11.dtd">
<svg width="100%" height="100%" viewBox="0 0 32 32" version="1.1" xmlns="http://www.w3.org/2000/svg" xmlns:xlink="http://www.w3.org/1999/xlink" xml:space="preserve" xmlns:serif="http://www.serif.com/" style="fill-rule:evenodd;clip-rule:evenodd;stroke-linejoin:round;stroke-miterlimit:2;">
    <g>
        <path d="M16,0C24.831,0 32,7.169 32,16C32,24.831 24.831,32 16,32C7.169,32 0,24.831 0,16C0,7.169 7.169,0 16,0ZM16,1.608C23.943,1.608 30.392,8.057 30.392,16C30.392,23.943 23.943,30.392 16,30.392C8.057,30.392 1.608,23.943 1.608,16C1.608,8.057 8.057,1.608 16,1.608Z" style="fill:white;"/>
        <g transform="matrix(1,0,0,1,-1.27386,-0.39929)">
            <circle cx="17.274" cy="12.253" r="5.368" style="fill:white;"/>
        </g>
        <path d="M5.364,26.3C6.821,21.817 11.035,18.573 16,18.573C20.965,18.573 25.179,21.817 26.636,26.3C23.942,29.08 20.172,30.809 16,30.809C11.828,30.809 8.058,29.08 5.364,26.3Z" style="fill:white;"/>
    </g>
</svg>
